<?xml version="1.0" encoding="UTF-8"?>
<!DOCTYPE svg PUBLIC "-//W3C//DTD SVG 1.1//EN" "http://www.w3.org/Graphics/SVG/1.1/DTD/svg11.dtd">
<!-- Creator: CorelDRAW -->
<svg xmlns="http://www.w3.org/2000/svg" xml:space="preserve" width="8.5in" height="11in" version="1.1" style="shape-rendering:geometricPrecision; text-rendering:geometricPrecision; image-rendering:optimizeQuality; fill-rule:evenodd; clip-rule:evenodd"
viewBox="0 0 8500 11000"
 xmlns:xlink="http://www.w3.org/1999/xlink"
 xmlns:xodm="http://www.corel.com/coreldraw/odm/2003"
 zoomAndPan="magnify">
 <defs>
  <style type="text/css">
   <![CDATA[
    .fil5 {fill:#412E2C}
    .fil0 {fill:black}
    .fil4 {fill:#999999}
    .fil1 {fill:#CCCCCC}
    .fil3 {fill:#E6E6E6}
    .fil2 {fill:white}
   ]]>
  </style>
 </defs>
 <g id="Layer_x0020_1">
  <metadata id="CorelCorpID_0Corel-Layer"/>
  <path class="fil0" d="M-8482.34 -4721.01c186.23,61.43 364.3,143.94 532.37,245.74 185.26,112.22 359.44,241.92 517.23,390.43l100.22 94.33 -2296.65 1660.14c-406.81,294.07 -860.43,470.95 -1360.19,517.98 -489.89,46.09 -962.72,-27.69 -1414.21,-223.22 -459.23,-198.88 -833.09,-508.47 -1126.23,-914 -294.15,-406.92 -475.2,-860.54 -518.13,-1361.22 -41.81,-487.74 38.58,-959.27 234.98,-1407.7 201.39,-459.81 511.52,-835.14 918.35,-1129.22 403.66,-291.79 854.49,-462.09 1350.84,-503.27 487.8,-40.47 960.52,33.35 1411.79,222.84 461.23,193.67 835.76,501.15 1128.76,906.49 167.37,231.54 298.85,484.44 384.5,757.31 75.91,241.82 120.59,490.89 136.35,743.37zm-1067.63 -137.13c241.61,-8.71 482.89,7.48 721.14,47.83 -23.83,-191.45 -69.46,-379.45 -132.41,-562.22 -78.81,-228.81 -186.61,-445.65 -328.55,-642 -256.41,-354.72 -582.47,-622.64 -985.37,-793.74 -395.81,-168.09 -810.92,-237 -1239.61,-203.44 -434.5,34.02 -826.26,185.98 -1179.39,441.24 -355.65,257.09 -626.09,583.45 -802.29,985.37 -173.49,395.73 -243.22,810.62 -207.56,1241.23 36.41,439.82 193.09,836.36 451.49,1193.83 257.51,356.23 585.22,625.02 989.07,798.6 399.76,171.82 817.33,238.97 1250.81,201.2 437.95,-38.15 833.5,-190.58 1189.77,-448.11l1036.33 -749.11c-206.66,-99.6 -427.46,-143.71 -663.38,-123.49 -291.03,24.95 -554.16,123.3 -790.89,294.42 -253.62,183.33 -536.72,294.76 -848.21,325.02 -305.67,29.69 -601.02,-17.82 -881.96,-141.87 -286.28,-126.41 -520.11,-320.94 -703.43,-574.55 -182.43,-252.37 -293.68,-534.04 -321.69,-844.28 -27.45,-303.98 22.04,-597.26 145.34,-876.49 126.43,-286.31 320.93,-520.24 574.56,-703.59 253.72,-183.4 537.11,-298.94 849.74,-325 300.07,-25.02 590.71,23.97 867,143.73 285.82,123.9 518.45,317.78 700.89,570.18 92.01,127.28 164.13,266.41 216.06,414.66 37.87,108.09 69.2,218.47 92.55,330.57zm-338.37 38.58c-36.84,-211.85 -119.45,-406.02 -247.61,-583.31 -146.46,-202.62 -331.62,-357.45 -560.23,-458.7 -224.1,-99.25 -460.33,-140.2 -704.69,-121.1 -251.44,19.66 -477.54,110.83 -681.65,258.37 -205.87,148.81 -364.02,336.63 -464.05,570.34 -96.74,226.02 -135.89,461.07 -113.69,705.88 22.73,250.57 116.07,476.15 263.18,679.67 148.4,205.3 335.05,365.33 566.94,468 224.66,99.47 459.24,137.19 703.76,113.21 252.4,-24.76 479.8,-118.19 685.1,-266.59 296.71,-214.47 628.12,-339.8 993.5,-363.98 350.76,-23.2 674.55,67.51 970.44,246.79l600.58 -434.13c-253.34,-200.62 -538.44,-342.94 -854.27,-427.84 -363.12,-97.61 -730.62,-115.28 -1101.1,-51.31 -373.76,64.53 -708.82,218.63 -1007.63,452.28l-1.69 1.32 -1.74 1.26c-155.91,112.7 -332.83,153.73 -523.05,126.35 -191.49,-27.56 -348.57,-119.54 -462.05,-276.52 -111.66,-154.48 -152.43,-329.87 -118.93,-517.58 33.31,-186.65 129.02,-337.93 282.64,-448.96 149.95,-108.4 320.38,-146.49 502.86,-117.17 186.62,29.98 337.04,125.27 447.66,278.3 90.59,125.31 137.59,259.37 139,398.74 90.19,-46.15 183.35,-86.41 279.01,-120.78 132.86,-47.72 269.07,-86.1 407.7,-112.53zm-1176.76 514.5c76.72,-62.88 124.94,-139.59 140.74,-237.81 14.78,-91.91 -3.15,-172.83 -57.75,-248.35 -56.7,-78.44 -128.6,-126.61 -224.44,-142.03 -95.81,-15.41 -179.15,7.73 -257.57,64.41 -79.07,57.15 -123.47,133.83 -142.87,229.08 -19.52,95.84 -1.2,180.43 56.09,259.7 58.78,81.31 135.5,125.72 234.73,139.63 94.18,13.21 177.05,-3.95 251.08,-64.62z"/>
  <path class="fil1" d="M-7094.82 1594.18c-146.46,-202.62 -331.62,-357.45 -560.23,-458.7 -224.1,-99.25 -460.33,-140.2 -704.69,-121.1 -251.44,19.66 -477.54,110.83 -681.65,258.37 -205.87,148.81 -364.02,336.63 -464.05,570.34 -96.74,226.02 -135.89,461.07 -113.69,705.88 22.73,250.57 116.07,476.15 263.18,679.67 148.4,205.3 335.05,365.33 566.94,468 224.66,99.47 459.24,137.19 703.76,113.21 252.4,-24.76 479.8,-118.19 685.1,-266.59 296.71,-214.47 628.12,-339.8 993.5,-363.98 350.76,-23.2 674.55,67.51 970.44,246.79l600.58 -434.13c-253.34,-200.62 -538.44,-342.94 -854.27,-427.84 -363.12,-97.61 -730.62,-115.28 -1101.1,-51.31 -373.76,64.53 -708.82,218.63 -1007.63,452.28l-1.69 1.32 -1.74 1.26c-155.91,112.7 -332.83,153.73 -523.05,126.35 -191.49,-27.56 -348.57,-119.54 -462.05,-276.52 -111.66,-154.48 -152.43,-329.87 -118.93,-517.58 33.31,-186.65 129.02,-337.93 282.64,-448.96 149.95,-108.4 320.38,-146.49 502.86,-117.17 186.62,29.98 337.04,125.27 447.66,278.3 90.59,125.31 137.59,259.37 139,398.74 90.19,-46.15 183.35,-86.41 279.01,-120.78 132.86,-47.72 269.07,-86.1 407.7,-112.53 -36.84,-211.85 -119.45,-406.02 -247.61,-583.31z"/>
  <path class="fil2" d="M5165.29 5181.82c-40.59,-156.61 -109.77,-301.1 -206.05,-434.3 -134.83,-186.52 -304.79,-329.19 -515.63,-422.56 -206.41,-91.42 -426.44,-129.62 -651.56,-112.02 -231.35,18.09 -438.46,102.46 -625.78,237.86 -189.33,136.85 -335.15,309.02 -427.36,524.47 -89.43,208.96 -125.82,426.09 -105.26,652.66 20.94,230.92 107.52,438.05 242.78,625.16 136.71,189.13 308.2,337.06 522.32,431.85 207.04,91.67 423.15,126.42 648.5,104.32 623.39,-61.13 863.96,-576.73 1682.08,-630.85 346.72,-22.94 671.71,58.38 971.2,225.52l420.82 -304.19c-212.12,-146.49 -445.05,-252.91 -696.57,-320.52 -347.03,-93.29 -699.65,-110.3 -1053.83,-49.14 -574.07,99.11 -1066.66,653.92 -1568.49,581.69 -220.86,-31.79 -404.52,-139.71 -535.53,-320.95 -128.93,-178.37 -176.76,-384.56 -138.07,-601.35 38.32,-214.71 149.81,-391.07 326.48,-518.78 173.61,-125.5 373.68,-170.55 584.75,-136.63 215.53,34.63 391.71,145.89 519.35,322.46 66.29,91.7 114.75,191.85 140.02,298.98 49.87,-21.68 100.46,-41.72 151.65,-60.1 102.89,-36.96 207.76,-68.52 314.18,-93.59z"/>
  <path class="fil3" d="M3757.85 3768.67c300.07,-25.02 590.71,23.97 867,143.73 285.82,123.9 518.45,317.78 700.89,570.18 92.01,127.28 164.13,266.41 216.06,414.66 37.87,108.09 69.2,218.47 92.55,330.57 241.61,-8.71 482.89,7.48 721.14,47.83 -23.83,-191.45 -69.46,-379.45 -132.41,-562.22 -78.81,-228.81 -186.61,-445.65 -328.55,-642 -256.41,-354.72 -582.47,-622.64 -985.37,-793.74 -395.81,-168.09 -810.92,-237 -1239.61,-203.44 -434.5,34.02 -826.26,185.98 -1179.39,441.24 -355.65,257.09 -626.09,583.45 -802.29,985.37 -173.49,395.73 -243.22,810.62 -207.56,1241.23 36.41,439.82 193.09,836.36 451.49,1193.83 257.51,356.23 585.22,625.02 989.07,798.6 399.76,171.82 817.33,238.97 1250.81,201.2 437.95,-38.15 833.5,-190.58 1189.77,-448.11l1036.33 -749.11c-206.66,-99.6 -427.46,-143.71 -663.38,-123.49 -698.27,59.87 -922.15,549.8 -1639.11,619.43 -305.67,29.69 -601.02,-17.82 -881.96,-141.87 -286.28,-126.41 -520.11,-320.94 -703.43,-574.55 -182.43,-252.37 -293.68,-534.04 -321.69,-844.28 -27.45,-303.98 22.04,-597.26 145.34,-876.49 126.43,-286.31 320.93,-520.24 574.56,-703.59 253.72,-183.4 537.11,-298.94 849.74,-325z"/>
  <path class="fil4" d="M-18103.19 3202.57c1564.09,0 2832.03,1267.94 2832.03,2832.03 0,311.09 -50.23,610.41 -142.95,890.39l-873.29 0c132,-268.66 206.24,-570.84 206.24,-890.39 0,-1116.74 -905.3,-2022.03 -2022.03,-2022.03 -1116.74,0 -2022.03,905.3 -2022.03,2022.03 0,1116.74 905.3,2022.03 2022.03,2022.03 458.49,0 881.27,-152.69 1220.43,-409.89l0 944c-369.55,176.82 -783.41,275.89 -1220.43,275.89 -1564.09,0 -2832.03,-1267.94 -2832.03,-2832.03 0,-1564.09 1267.94,-2832.03 2832.03,-2832.03z"/>
  <circle class="fil5" cx="15136.67" cy="-2097.05" r="2022.03"/>
  <circle class="fil4" cx="-18103.19" cy="6034.61" r="1212.03"/>
  <rect class="fil2" transform="matrix(0.84003 0.542539 -0.358021 0.554335 11429.3 662.77)" width="4288.72" height="1227.46"/>
 </g>
</svg>
